<svg version="1.1" xmlns="http://www.w3.org/2000/svg" viewBox="0 0 763.892349147736 379.782660111137" width="763.892349147736" height="379.782660111137" filter="invert(93%) hue-rotate(180deg)" class="excalidraw-svg">
  <!-- svg-source:excalidraw -->
  
  <defs>
    <style class="style-fonts">
      @font-face {
        font-family: "Virgil";
        src: url("https://excalidraw.com/Virgil.woff2");
      }
      @font-face {
        font-family: "Cascadia";
        src: url("https://excalidraw.com/Cascadia.woff2");
      }
      @font-face {
        font-family: "Assistant";
        src: url("https://excalidraw.com/Assistant-Regular.woff2");
      }
    </style>
    
  </defs>
  <rect x="0" y="0" width="763.892349147736" height="379.782660111137" fill="#ffffff"/><g stroke-linecap="round"><g transform="translate(10 119.29998016357422) rotate(0 150.00001525878906 -1.1999969482421875)"><path d="M0 0 C50 -0.4, 250 -2, 300 -2.4 M0 0 C50 -0.4, 250 -2, 300 -2.4" stroke="#1e1e1e" stroke-width="2" fill="none"/></g><g transform="translate(10 119.29998016357422) rotate(0 150.00001525878906 -1.1999969482421875)"><path d="M276.58 6.34 C285.94 2.85, 295.3 -0.65, 300 -2.4 M276.58 6.34 C281.31 4.57, 286.05 2.8, 300 -2.4" stroke="#1e1e1e" stroke-width="2" fill="none"/></g><g transform="translate(10 119.29998016357422) rotate(0 150.00001525878906 -1.1999969482421875)"><path d="M276.44 -10.76 C285.86 -7.42, 295.27 -4.08, 300 -2.4 M276.44 -10.76 C281.2 -9.07, 285.97 -7.38, 300 -2.4" stroke="#1e1e1e" stroke-width="2" fill="none"/></g></g><mask/><g stroke-linecap="round"><g transform="translate(50 117.6999740600586) rotate(0 102.39999389648438 -35.59998321533203)"><path d="M0 0 C-0.19 -17.06, -0.38 -34.12, -0.8 -72 M0 0 C-0.21 -18.64, -0.41 -37.27, -0.8 -72 M-0.8 -72 C69.92 -71.73, 140.65 -71.45, 205.6 -71.2 M-0.8 -72 C81.06 -71.68, 162.91 -71.37, 205.6 -71.2 M205.6 -71.2 C205.6 -53.71, 205.6 -36.22, 205.6 0.8 M205.6 -71.2 C205.6 -42.54, 205.6 -13.88, 205.6 0.8" stroke="#1e1e1e" stroke-width="2" fill="none"/></g></g><mask/><g transform="translate(43.600006103515625 128.89998626708984) rotate(0 5.5615234375 11.5)"><text x="0" y="18.400390625" font-family="Helvetica, Segoe UI Emoji" font-size="20px" fill="#1e1e1e" text-anchor="start" style="white-space: pre;" direction="ltr" dominant-baseline="alphabetic">a</text></g><g transform="translate(250.80001831054688 129.69994354248047) rotate(0 5.5615234375 11.5)"><text x="0" y="18.400390625" font-family="Helvetica, Segoe UI Emoji" font-size="20px" fill="#1e1e1e" text-anchor="start" style="white-space: pre;" direction="ltr" dominant-baseline="alphabetic">b</text></g><g transform="translate(136.39999389648438 12.099983215332031) rotate(0 14.4384765625 11.5)"><text x="0" y="18.400390625" font-family="Helvetica, Segoe UI Emoji" font-size="20px" fill="#1e1e1e" text-anchor="start" style="white-space: pre;" direction="ltr" dominant-baseline="alphabetic">x(t)</text></g><g transform="translate(273.9999694824219 25.699974060058594) rotate(0 5.5615234375 11.5)"><text x="0" y="18.400390625" font-family="Helvetica, Segoe UI Emoji" font-size="20px" fill="#1e1e1e" text-anchor="start" style="white-space: pre;" direction="ltr" dominant-baseline="alphabetic">e</text></g><g stroke-linecap="round"><g transform="translate(453.89231863015794 117.19999694824219) rotate(0 150.00001525878906 -1.1999969482421875)"><path d="M0 0 C50 -0.4, 250 -2, 300 -2.4 M0 0 C50 -0.4, 250 -2, 300 -2.4" stroke="#1e1e1e" stroke-width="2" fill="none"/></g><g transform="translate(453.89231863015794 117.19999694824219) rotate(0 150.00001525878906 -1.1999969482421875)"><path d="M276.58 6.34 C284 3.57, 291.43 0.8, 300 -2.4 M276.58 6.34 C284.96 3.21, 293.34 0.08, 300 -2.4" stroke="#1e1e1e" stroke-width="2" fill="none"/></g><g transform="translate(453.89231863015794 117.19999694824219) rotate(0 150.00001525878906 -1.1999969482421875)"><path d="M276.44 -10.76 C283.91 -8.11, 291.38 -5.46, 300 -2.4 M276.44 -10.76 C284.87 -7.77, 293.3 -4.78, 300 -2.4" stroke="#1e1e1e" stroke-width="2" fill="none"/></g></g><mask/><g stroke-linecap="round"><g transform="translate(493.89231863015794 115.59999084472656) rotate(0 102.39999389648438 -35.59998321533203)"><path d="M0 0 C-0.25 -22.7, -0.5 -45.4, -0.8 -72 M0 0 C-0.17 -14.94, -0.33 -29.87, -0.8 -72 M-0.8 -72 C49.84 -71.8, 100.48 -71.61, 205.6 -71.2 M-0.8 -72 C45.1 -71.82, 91.01 -71.64, 205.6 -71.2 M205.6 -71.2 C205.6 -46.29, 205.6 -21.37, 205.6 0.8 M205.6 -71.2 C205.6 -53.12, 205.6 -35.04, 205.6 0.8" stroke="#1e1e1e" stroke-width="2" fill="none"/></g></g><mask/><g transform="translate(487.49232473367357 126.80000305175781) rotate(0 5 11.5)"><text x="0" y="18.400390625" font-family="Helvetica, Segoe UI Emoji" font-size="20px" fill="#1e1e1e" text-anchor="start" style="white-space: pre;" direction="ltr" dominant-baseline="alphabetic">c</text></g><g transform="translate(694.6923369407049 127.59996032714844) rotate(0 5.5615234375 11.5)"><text x="0" y="18.400390625" font-family="Helvetica, Segoe UI Emoji" font-size="20px" fill="#1e1e1e" text-anchor="start" style="white-space: pre;" direction="ltr" dominant-baseline="alphabetic">d</text></g><g transform="translate(580.2923125266423 10) rotate(0 14.4384765625 11.5)"><text x="0" y="18.400390625" font-family="Helvetica, Segoe UI Emoji" font-size="20px" fill="#1e1e1e" text-anchor="start" style="white-space: pre;" direction="ltr" dominant-baseline="alphabetic">y(t)</text></g><g transform="translate(717.8922881125799 23.599990844726562) rotate(0 2.7783203125 11.5)"><text x="0" y="18.400390625" font-family="Helvetica, Segoe UI Emoji" font-size="20px" fill="#1e1e1e" text-anchor="start" style="white-space: pre;" direction="ltr" dominant-baseline="alphabetic">f</text></g><g stroke-linecap="round"><g transform="translate(40.104240749193366 332.1826158606487) rotate(0 345.20001220703125 -0.3999786376953125)"><path d="M0 0 C115.07 -0.13, 575.33 -0.67, 690.4 -0.8 M0 0 C115.07 -0.13, 575.33 -0.67, 690.4 -0.8" stroke="#1e1e1e" stroke-width="2" fill="none"/></g><g transform="translate(40.104240749193366 332.1826158606487) rotate(0 345.20001220703125 -0.3999786376953125)"><path d="M666.92 7.78 C673.8 5.26, 680.68 2.75, 690.4 -0.8 M666.92 7.78 C673.65 5.32, 680.37 2.86, 690.4 -0.8" stroke="#1e1e1e" stroke-width="2" fill="none"/></g><g transform="translate(40.104240749193366 332.1826158606487) rotate(0 345.20001220703125 -0.3999786376953125)"><path d="M666.9 -9.32 C673.78 -6.83, 680.67 -4.33, 690.4 -0.8 M666.9 -9.32 C673.63 -6.88, 680.36 -4.44, 690.4 -0.8" stroke="#1e1e1e" stroke-width="2" fill="none"/></g></g><mask/><g stroke-linecap="round"><g transform="translate(127.30428347380274 331.3824754797893) rotate(0 234.00001525878906 -35.599937438964844)"><path d="M0 0 C29.71 -16.42, 59.42 -32.85, 128.8 -71.2 M0 0 C40.72 -22.51, 81.43 -45.02, 128.8 -71.2 M128.8 -71.2 C193.62 -70.95, 258.45 -70.7, 335.2 -70.4 M128.8 -71.2 C179.08 -71, 229.36 -70.81, 335.2 -70.4 M335.2 -70.4 C375.02 -49.53, 414.84 -28.66, 468 -0.8 M335.2 -70.4 C374.39 -49.86, 413.58 -29.32, 468 -0.8" stroke="#1e1e1e" stroke-width="2" fill="none"/></g></g><mask/><g transform="translate(110.50432619841212 345.78256092900807) rotate(0 16.4013671875 11.5)"><text x="0" y="18.400390625" font-family="Helvetica, Segoe UI Emoji" font-size="20px" fill="#1e1e1e" text-anchor="start" style="white-space: pre;" direction="ltr" dominant-baseline="alphabetic">a+c</text></g><g transform="translate(576.1043628195059 346.5826402747112) rotate(0 16.962890625 11.5)"><text x="0" y="18.400390625" font-family="Helvetica, Segoe UI Emoji" font-size="20px" fill="#1e1e1e" text-anchor="start" style="white-space: pre;" direction="ltr" dominant-baseline="alphabetic">b+d</text></g><g transform="translate(316.1043017843496 224.18263111943776) rotate(0 38.3251953125 11.5)"><text x="0" y="18.400390625" font-family="Helvetica, Segoe UI Emoji" font-size="20px" fill="#1e1e1e" text-anchor="start" style="white-space: pre;" direction="ltr" dominant-baseline="alphabetic">x(t) * y(t)</text></g><g transform="translate(483.3042529562246 238.5826402747112) rotate(0 74.462890625 11.5)"><text x="0" y="18.400390625" font-family="Helvetica, Segoe UI Emoji" font-size="20px" fill="#1e1e1e" text-anchor="start" style="white-space: pre;" direction="ltr" dominant-baseline="alphabetic">ef * min(b-a, d-c)</text></g><g stroke-linecap="round"><g transform="translate(256.5043719747793 262.8826662146526) rotate(0 -0.399993896484375 35.59999084472656)"><path d="M0 0 C-0.29 25.4, -0.57 50.8, -0.8 71.2" stroke="#1e1e1e" stroke-width="2.5" fill="none" stroke-dasharray="8 10"/></g></g><mask/><g stroke-linecap="round"><g transform="translate(462.90433535368555 264.4826723181682) rotate(0 0 34.399993896484375)"><path d="M0 0 C0 19.19, 0 38.39, 0 68.8" stroke="#1e1e1e" stroke-width="2.5" fill="none" stroke-dasharray="8 10"/></g></g><mask/><g transform="translate(192.5043719747793 346.0826479041057) rotate(0 61.6943359375 11.5)"><text x="0" y="18.400390625" font-family="Helvetica, Segoe UI Emoji" font-size="20px" fill="#1e1e1e" text-anchor="start" style="white-space: pre;" direction="ltr" dominant-baseline="alphabetic">min(a+d, b+c)</text></g><g transform="translate(401.5883563497793 346.782660111137) rotate(0 64.47265625 11.5)"><text x="0" y="18.400390625" font-family="Helvetica, Segoe UI Emoji" font-size="20px" fill="#1e1e1e" text-anchor="start" style="white-space: pre;" direction="ltr" dominant-baseline="alphabetic">max(a+d, b+c)</text></g></svg>